<svg xmlns="http://www.w3.org/2000/svg" xml:space="preserve" viewBox="0 0 7127.6 2890"><path fill="#6D6E71" d="M7104.7 847.8c15.3 15.3 22.9 33.7 22.9 55.2s-7.6 39.9-22.9 55.4c-15.3 15.4-33.8 23.1-55.6 23.1-21.8 0-40.2-7.6-55.4-22.9-15.1-15.3-22.7-33.7-22.7-55.2s7.6-39.9 22.9-55.4c15.3-15.4 33.7-23.1 55.4-23.1 21.6 0 40.1 7.6 55.4 22.9zm-6.6 104.1c13.3-13.6 20-29.8 20-48.7s-6.6-35-19.8-48.5c-13.2-13.4-29.4-20.1-48.6-20.1-19.2 0-35.4 6.7-48.7 20.2-13.3 13.5-19.9 29.7-19.9 48.7 0 19 6.6 35.2 19.7 48.6 13.1 13.4 29.3 20.1 48.5 20.1s35.4-6.8 48.8-20.3zm-11-63.8c0 14-6.1 22.8-18.4 26.4l22.5 30.5H7073l-20.3-28.3h-18.6V945h-14.7v-84.6h31.8c12.8 0 22 2.2 27.6 6.6 5.6 4.4 8.3 11.4 8.3 21.1zm-18.9 11.9c3-2.4 4.4-6.5 4.4-12s-1.5-9.4-4.5-11.6c-3-2.2-8.4-3.2-16-3.2h-18v30.5h17.5c8.1-.1 13.7-1.3 16.6-3.7zM1803.6 499.8v155.4h-20V499.8h-56.8v-19.2h133.9v19.2h-57.1zm278.6 155.4v-76.9H1977v76.9h-20V480.5h20v78.9h105.2v-78.9h20v174.7h-20zm159.2-155.4v57.4h88.1v19.2h-88.1v59.8h101.8v19h-121.8V480.5H2340v19.2h-98.6z"/><path fill="#D22128" d="m1574.5 1852.4 417.3-997.6h80.1l417.3 997.6h-105.4l-129.3-311.9h-448.2l-127.9 311.9h-103.9zM2032.6 970l-205.1 493.2h404.7L2032.6 970zm564.3 882.4V854.8H3010c171.4 0 295.1 158.8 295.1 313.3 0 163-115.2 316.1-286.6 316.1h-324.6v368.1h-97zm97-455.3h318.9c118 0 193.9-108.2 193.9-229 0-125.1-92.7-226.2-202.3-226.2h-310.5v455.2zm556.6 455.3 417.3-997.6h80.1l417.3 997.6h-105.4l-129.3-311.9h-448.2l-127.9 311.9h-103.9zM3708.6 970l-205.1 493.2h404.7L3708.6 970zm928.7-120.9c177 0 306.3 89.9 368.1 217.8l-78.7 47.8c-63.2-132.1-186.9-177-295.1-177-238.9 0-369.5 213.6-369.5 414.5 0 220.6 161.6 420.1 373.7 420.1 112.4 0 244.5-56.2 307.7-185.5l81.5 42.1c-64.6 148.9-241.7 231.8-394.8 231.8-274 0-466.5-261.3-466.5-514.2.1-240.2 172.9-497.4 473.6-497.4zm1311.8 5.7v997.6h-98.4v-466.5h-591.5v466.5h-96.9V854.8h96.9v444h591.5v-444h98.4zm895.5 910.4v87.1h-670.2V854.8H6832v87.1h-560.6v359.7h489v82.9h-489v380.8h573.2z"/><path fill="#6D6E71" d="M1667.6 2063.6c11.8 3.5 22.2 8.3 31 14.2l-10.3 22.6c-9-6-18.6-10.4-28.9-13.4-10.2-2.9-20-4.4-29.2-4.4-13.6 0-24.5 2.4-32.6 7.3-8.1 4.9-12.2 11.8-12.2 20.7 0 7.6 2.3 14 6.8 19s10.2 8.9 17 11.7c6.8 2.8 16.1 6 28 9.6 14.4 4.6 26 8.9 34.7 12.9 8.8 4 16.3 9.9 22.5 17.8 6.2 7.8 9.3 18.2 9.3 31 0 11.7-3.2 21.8-9.5 30.6-6.3 8.7-15.3 15.5-26.8 20.3-11.6 4.8-24.9 7.2-40 7.2-15.1 0-29.7-2.9-43.9-8.7-14.2-5.8-26.4-13.6-36.6-23.4l10.7-21.6c9.6 9.4 20.7 16.7 33.3 21.9 12.6 5.2 24.8 7.8 36.8 7.8 15.3 0 27.3-3 36.1-8.9s13.2-13.9 13.2-23.9c0-7.8-2.3-14.3-6.9-19.4-4.6-5.1-10.3-9-17.1-11.9-6.8-2.8-16.1-6-28-9.6-14.2-4.2-25.7-8.3-34.6-12.2-8.9-3.9-16.4-9.7-22.5-17.5-6.1-7.7-9.2-17.9-9.2-30.6 0-10.9 3-20.4 9-28.6 6-8.2 14.6-14.6 25.6-19.1 11.1-4.5 23.8-6.8 38.2-6.8 12.3.1 24.2 1.9 36.1 5.4zm312.5 9.2c16.8 9.4 30.2 22.3 40 38.4 9.8 16.2 14.8 33.9 14.8 53.3 0 19.5-4.9 37.4-14.8 53.6-9.8 16.3-23.2 29.1-40 38.6s-35.3 14.3-55.2 14.3c-20.3 0-38.8-4.7-55.7-14.3-16.8-9.5-30.2-22.4-40-38.6-9.8-16.3-14.8-34.1-14.8-53.6s4.9-37.3 14.8-53.5c9.8-16.2 23.2-29 40-38.3 16.8-9.4 35.4-14 55.7-14 19.9-.1 38.3 4.6 55.2 14.1zm-98.2 19.9c-13.1 7.4-23.6 17.5-31.4 30.1-7.8 12.6-11.8 26.5-11.8 41.7 0 15.3 3.9 29.3 11.8 42 7.8 12.7 18.3 22.8 31.4 30.2 13.1 7.4 27.4 11.1 42.9 11.1s29.7-3.7 42.7-11.1c13-7.4 23.3-17.4 31.1-30.2 7.7-12.7 11.6-26.7 11.6-42s-3.9-29.2-11.6-41.8c-7.7-12.6-18.1-22.6-31.1-30-13-7.4-27.2-11.2-42.6-11.2-15.5 0-29.8 3.7-43 11.2zm304.6-10.3v74h98.4v23.2h-98.4v90.2h-24.1v-210.6h133.8v23.2h-109.7zm305.1 0v187.4h-24.1v-187.4h-68.4v-23.2h161.4v23.2h-68.9zm380.2 187.4-56.8-177.4-57.6 177.4h-24.5l-70.5-210.6h25.9l57.9 182.7 57.1-182.4 24.1-.3 57.7 182.7 57.1-182.7h25l-70.6 210.6h-24.8zm215.5-53.2-23.5 53.2h-25.6l94.4-210.6h25l94.1 210.6h-26.1l-23.5-53.2h-114.8zm57.2-130-46.9 106.8h94.4l-47.5-106.8zm316.6 116.1c-6 .4-10.7.6-14.1.6h-56v66.5h-24v-210.6h80c26.2 0 46.6 6.2 61.2 18.5 14.5 12.3 21.8 29.8 21.8 52.3 0 17.2-4.1 31.7-12.2 43.3-8.1 11.6-19.8 20-35 25l49.2 71.5h-27.3l-43.6-67.1zm30.2-35.1c10.3-8.4 15.5-20.8 15.5-37 0-15.9-5.2-27.9-15.5-36-10.3-8.1-25.1-12.2-44.3-12.2h-56v97.8h56c19.2 0 34-4.2 44.3-12.6zm197-85.2v69.2h106.2v23.2h-106.2v72.1h122.8v22.9h-146.9v-210.6h142.9v23.2h-118.8zm458.7 0v74h98.4v23.2H4147v90.2h-24.1v-210.6h133.8v23.2H4147zm376.3-9.6c16.8 9.4 30.2 22.3 40 38.4 9.8 16.2 14.8 33.9 14.8 53.3 0 19.5-4.9 37.4-14.8 53.6-9.8 16.3-23.2 29.1-40 38.6s-35.3 14.3-55.2 14.3c-20.3 0-38.8-4.7-55.7-14.3-16.8-9.5-30.2-22.4-40-38.6-9.8-16.3-14.8-34.1-14.8-53.6s4.9-37.3 14.8-53.5c9.8-16.2 23.2-29 40-38.3 16.8-9.4 35.4-14 55.7-14 20-.1 38.4 4.6 55.2 14.1zm-98.1 19.9c-13.1 7.4-23.6 17.5-31.4 30.1-7.8 12.6-11.8 26.5-11.8 41.7 0 15.3 3.9 29.3 11.8 42 7.8 12.7 18.3 22.8 31.4 30.2 13.1 7.4 27.4 11.1 42.9 11.1s29.7-3.7 42.7-11.1c13-7.4 23.3-17.4 31.1-30.2 7.7-12.7 11.6-26.7 11.6-42s-3.9-29.2-11.6-41.8c-7.7-12.6-18.1-22.6-31.1-30-13-7.4-27.2-11.2-42.6-11.2-15.6 0-29.9 3.7-43 11.2zm429.5 155c-15.7 15.5-37.3 23.3-64.8 23.3-27.7 0-49.4-7.8-65.1-23.3-15.7-15.5-23.6-37-23.6-64.6v-124h24.1v124c0 20.3 5.8 36.1 17.3 47.5 11.6 11.4 27.3 17.1 47.3 17.1 20.1 0 35.8-5.7 47.1-17 11.4-11.3 17-27.2 17-47.7v-124h24.1v124c.1 27.7-7.7 49.2-23.4 64.7zm314.8 22.1-126.3-169.1v169.1h-24.1v-210.6h25l126.3 169.3v-169.3h23.8v210.6h-24.7zm308.9-196.7c16.4 9.3 29.4 21.9 38.9 37.9 9.6 16 14.3 33.9 14.3 53.5s-4.8 37.6-14.3 53.6c-9.5 16.1-22.6 28.7-39.3 37.9-16.6 9.2-35.2 13.8-55.5 13.8h-84.3v-210.6h85.2c20.3 0 38.6 4.6 55 13.9zm-116.1 173.8h61.4c15.5 0 29.6-3.5 42.3-10.6 12.7-7.1 22.8-16.9 30.2-29.5 7.4-12.5 11.1-26.5 11.1-42s-3.8-29.4-11.3-41.9c-7.5-12.5-17.7-22.3-30.6-29.6-12.8-7.2-27-10.9-42.6-10.9h-60.5v164.5zm306.3-30.3-23.5 53.2h-25.6l94.4-210.6h25l94.1 210.6h-26l-23.5-53.2h-114.9zm57.2-130-46.9 106.8h94.4l-47.5-106.8zm265.2-4.2v187.4h-24v-187.4h-68.4v-23.2H6060v23.2h-69zm184.9 187.4v-210.6h24.1v210.6h-24.1zm317.8-197c16.8 9.4 30.2 22.3 40 38.4 9.8 16.2 14.8 33.9 14.8 53.3 0 19.5-4.9 37.4-14.8 53.6-9.8 16.3-23.2 29.1-40 38.6s-35.3 14.3-55.2 14.3c-20.3 0-38.8-4.7-55.7-14.3-16.8-9.5-30.2-22.4-40-38.6-9.8-16.3-14.8-34.1-14.8-53.6s4.9-37.3 14.8-53.5c9.8-16.2 23.2-29 40-38.3 16.8-9.4 35.4-14 55.7-14 20-.1 38.4 4.6 55.2 14.1zm-98.1 19.9c-13.1 7.4-23.6 17.5-31.4 30.1-7.8 12.6-11.8 26.5-11.8 41.7 0 15.3 3.9 29.3 11.8 42 7.8 12.7 18.3 22.8 31.4 30.2 13.1 7.4 27.4 11.1 42.9 11.1s29.7-3.7 42.7-11.1c13-7.4 23.3-17.4 31.1-30.2 7.7-12.7 11.6-26.7 11.6-42s-3.9-29.2-11.6-41.8c-7.7-12.6-18.1-22.6-31.1-30-13-7.4-27.2-11.2-42.6-11.2-15.6 0-29.8 3.7-43 11.2zm430.9 177.1-126.3-169.1v169.1h-24.1v-210.6h25l126.3 169.3v-169.3h23.8v210.6h-24.7z"/><linearGradient id="a" x1="-4516.615" x2="-4108.411" y1="-2338.722" y2="-1861.398" gradientTransform="rotate(-65.001 314.438 -5446.674)" gradientUnits="userSpaceOnUse"><stop offset="0" stop-color="#f69923"/><stop offset=".312" stop-color="#f79a23"/><stop offset=".838" stop-color="#e97826"/></linearGradient><path fill="url(#a)" d="M1230.1 13.7c-45.3 26.8-120.6 102.5-210.5 212.3l82.6 155.9c58-82.9 116.9-157.5 176.3-221.2 4.6-5.1 7-7.5 7-7.5-2.3 2.5-4.6 5-7 7.5-19.2 21.2-77.5 89.2-165.5 224.4 84.7-4.2 214.9-21.6 321.1-39.7 31.6-177-31-258-31-258s-79.7-128.8-173-73.7z"/><path fill="none" d="m1090.2 903.1 1.8-.3-11.9 1.3c-.7.3-1.4.7-2.1 1 4.1-.7 8.2-1.4 12.2-2zm-84.3 279.2c-6.7 1.5-13.7 2.7-20.7 3.7 7.1-1 14-2.2 20.7-3.7zm-573 626.5c.9-2.3 1.8-4.7 2.6-7 18.2-48 36.2-94.7 54-140.1 20-51 39.8-100.4 59.3-148.3 20.6-50.4 40.9-99.2 60.9-146.3 21-49.4 41.7-97 62-142.8 16.5-37.3 32.8-73.4 48.9-108.3 5.4-11.7 10.7-23.2 16-34.6 10.5-22.7 21-44.8 31.3-66.5 9.5-20 19-39.6 28.3-58.8 3.1-6.4 6.2-12.8 9.3-19.1.5-1 1-2 1.5-3.1l-10.2 1.1-8-15.9c-.8 1.6-1.6 3.1-2.4 4.6-14.5 28.8-28.9 57.9-43.1 87.2-8.2 16.9-16.4 34-24.6 51-22.6 47.4-44.8 95.2-66.6 143.3-22.1 48.6-43.7 97.5-64.9 146.5-20.8 48.1-41.3 96.2-61.2 144.2-20 48-39.5 95.7-58.5 143.2-19.9 49.5-39.2 98.7-58 147.2-4.2 10.9-8.5 21.9-12.7 32.8-15 39.2-29.7 77.8-44 116l12.7 25.1 11.4-1.2c.4-1.1.8-2.3 1.3-3.4 18.5-50.2 36.7-99.2 54.7-146.8zm547.1-622c.1 0 .1 0 .1-.1 0 .1 0 .1-.1.1z"/><path fill="#BE202E" d="M952.6 1323c-10.6 1.9-21.4 3.8-32.5 5.7-.1 0-.1.1-.2.1 5.6-.8 11.2-1.7 16.6-2.6 5.5-1 10.8-2.1 16.1-3.2z"/><path fill="#BE202E" d="M952.6 1323c-10.6 1.9-21.4 3.8-32.5 5.7-.1 0-.1.1-.2.1 5.6-.8 11.2-1.7 16.6-2.6 5.5-1 10.8-2.1 16.1-3.2z" opacity=".35"/><path fill="#BE202E" d="M980.3 1186.7c-.1 0-.1 0 0 0-.1.1-.2.1-.2.1 1.8-.2 3.5-.5 5.2-.8 7-1 13.9-2.2 20.7-3.7-8.5 1.5-17 2.9-25.7 4.4z"/><path fill="#BE202E" d="M980.3 1186.7c-.1 0-.1 0 0 0-.1.1-.2.1-.2.1 1.8-.2 3.5-.5 5.2-.8 7-1 13.9-2.2 20.7-3.7-8.5 1.5-17 2.9-25.7 4.4z" opacity=".35"/><linearGradient id="b" x1="-7537.734" x2="-4625.414" y1="-2391.407" y2="-2391.407" gradientTransform="rotate(-65.001 314.438 -5446.674)" gradientUnits="userSpaceOnUse"><stop offset=".323" stop-color="#9e2064"/><stop offset=".63" stop-color="#c92037"/><stop offset=".751" stop-color="#cd2335"/><stop offset="1" stop-color="#e97826"/></linearGradient><path fill="url(#b)" d="M858.6 784.7c25.1-46.9 50.5-92.8 76.2-137.4 26.7-46.4 53.7-91.3 80.9-134.7 1.6-2.6 3.2-5.2 4.8-7.7 27-42.7 54.2-83.7 81.6-122.9l-82.6-156c-6.2 7.6-12.5 15.3-18.8 23.2-23.8 29.7-48.6 61.6-73.9 95.5-28.6 38.2-58 78.9-87.8 121.7-27.6 39.5-55.5 80.9-83.5 123.7-23.8 36.5-47.7 74-71.4 112.5-.9 1.4-1.8 2.9-2.6 4.3L789 919.2c22.8-45.6 46.1-90.5 69.6-134.5z"/><linearGradient id="c" x1="-7186.178" x2="-5450.718" y1="-2099.306" y2="-2099.306" gradientTransform="rotate(-65.001 314.438 -5446.674)" gradientUnits="userSpaceOnUse"><stop offset="0" stop-color="#282662"/><stop offset=".095" stop-color="#662e8d"/><stop offset=".788" stop-color="#9f2064"/><stop offset=".949" stop-color="#cd2032"/></linearGradient><path fill="url(#c)" d="M369 1981c-14.2 39.1-28.5 78.9-42.9 119.6l-.6 1.8c-2 5.7-4.1 11.5-6.1 17.2-9.7 27.4-18 52.1-37.3 108.2 31.7 14.5 57.1 52.5 81.1 95.6-2.6-44.7-21-86.6-56.2-119.1 156.1 7 290.6-32.4 360.1-146.6 6.2-10.2 11.9-20.9 17-32.2-31.6 40.1-70.8 57.1-144.5 53-.2.1-.3.1-.5.2.2-.1.3-.1.5-.2 108.6-48.6 163.1-95.3 211.2-172.6 11.4-18.3 22.5-38.4 33.8-60.6-94.9 97.5-205 125.3-320.9 104.2l-86.9 9.5c-2.4 7.3-5.1 14.6-7.8 22z"/><linearGradient id="d" x1="-7374.163" x2="-4461.843" y1="-2418.545" y2="-2418.545" gradientTransform="rotate(-65.001 314.438 -5446.674)" gradientUnits="userSpaceOnUse"><stop offset=".323" stop-color="#9e2064"/><stop offset=".63" stop-color="#c92037"/><stop offset=".751" stop-color="#cd2335"/><stop offset="1" stop-color="#e97826"/></linearGradient><path fill="url(#d)" d="M409.6 1786.3c18.8-48.5 38.1-97.7 58-147.2 19-47.4 38.5-95.2 58.5-143.2 20-48 40.4-96.1 61.2-144.2 21.2-49 42.9-97.8 64.9-146.5 21.8-48.1 44-95.9 66.6-143.3 8.1-17.1 16.3-34.1 24.6-51 14.2-29.3 28.6-58.4 43.1-87.2.8-1.6 1.6-3.1 2.4-4.6L681.4 706.8c-1.8 2.9-3.5 5.8-5.3 8.6-25.1 40.9-50 82.7-74.4 125.4-24.7 43.1-49 87.1-72.7 131.7-20 37.6-39.6 75.6-58.6 113.9-3.8 7.8-7.6 15.5-11.3 23.2-23.4 48.2-44.6 94.8-63.7 139.5-21.7 50.7-40.7 99.2-57.5 145.1-11 30.2-21 59.4-30.1 87.4-7.5 24-14.7 47.9-21.5 71.8-16 56.3-29.9 112.4-41.2 168.3L353 1935.1c14.3-38.1 28.9-76.8 44-116 4.1-10.9 8.4-21.8 12.6-32.8z"/><linearGradient id="e" x1="-7161.764" x2="-5631.252" y1="-2379.143" y2="-2379.143" gradientTransform="rotate(-65.001 314.438 -5446.674)" gradientUnits="userSpaceOnUse"><stop offset="0" stop-color="#282662"/><stop offset=".095" stop-color="#662e8d"/><stop offset=".788" stop-color="#9f2064"/><stop offset=".949" stop-color="#cd2032"/></linearGradient><path fill="url(#e)" d="M243.5 1729.4c-13.6 68.2-23.2 136.2-28 203.8-.2 2.4-.4 4.7-.5 7.1-33.7-54-124-106.8-123.8-106.2 64.6 93.7 113.7 186.7 120.9 278-34.6 7.1-82-3.2-136.8-23.3 57.1 52.5 100 67 116.7 70.9-52.5 3.3-107.1 39.3-162.1 80.8 80.5-32.8 145.5-45.8 192.1-35.3C148.1 2414.2 74.1 2645 0 2890c22.7-6.7 36.2-21.9 43.9-42.6 13.2-44.4 100.8-335.6 238-718.2 3.9-10.9 7.8-21.8 11.8-32.9 1.1-3 2.2-6.1 3.3-9.2 14.5-40.1 29.5-81.1 45.1-122.9 3.5-9.5 7.1-19 10.7-28.6.1-.2.1-.4.2-.6l-107.9-213.2c-.5 2.6-1.1 5.1-1.6 7.6z"/><linearGradient id="f" x1="-7374.163" x2="-4461.843" y1="-2117.131" y2="-2117.131" gradientTransform="rotate(-65.001 314.438 -5446.674)" gradientUnits="userSpaceOnUse"><stop offset=".323" stop-color="#9e2064"/><stop offset=".63" stop-color="#c92037"/><stop offset=".751" stop-color="#cd2335"/><stop offset="1" stop-color="#e97826"/></linearGradient><path fill="url(#f)" d="M805.6 937c-3.1 6.3-6.2 12.7-9.3 19.1-9.3 19.2-18.8 38.8-28.3 58.8-10.3 21.7-20.7 43.9-31.3 66.5-5.3 11.4-10.6 22.9-16 34.6-16.1 35-32.4 71.1-48.9 108.3-20.3 45.8-41 93.4-62 142.8-20 47.1-40.3 95.9-60.9 146.3-19.5 47.9-39.3 97.3-59.3 148.3-17.8 45.4-35.9 92.1-54 140.1-.9 2.3-1.8 4.7-2.6 7-18 47.6-36.2 96.6-54.6 146.8-.4 1.1-.8 2.3-1.3 3.4l86.9-9.5c-1.7-.3-3.5-.5-5.2-.9 103.9-13 242.1-90.6 331.4-186.5 41.1-44.2 78.5-96.3 113-157.3 25.7-45.4 49.8-95.8 72.8-151.5 20.1-48.7 39.4-101.4 58-158.6-23.9 12.6-51.2 21.8-81.4 28.2-5.3 1.1-10.7 2.2-16.1 3.1-5.5 1-11 1.8-16.6 2.6.1 0 .1-.1.2-.1 96.9-37.3 158-109.2 202.4-197.4-25.5 17.4-66.9 40.1-116.6 51.1-6.7 1.5-13.7 2.7-20.7 3.7-1.7.3-3.5.6-5.2.8.1 0 .1 0 .1-.1h.1c33.6-14.1 62-29.8 86.6-48.4 5.3-4 10.4-8.1 15.3-12.3 7.5-6.5 14.7-13.3 21.5-20.5 4.4-4.6 8.6-9.3 12.7-14.2 9.6-11.5 18.7-23.9 27.1-37.3 2.6-4.1 5.1-8.3 7.6-12.6 3.2-6.2 6.3-12.3 9.3-18.3 13.5-27.2 24.4-51.5 33-72.8 4.3-10.6 8.1-20.5 11.3-29.7 1.3-3.7 2.5-7.2 3.7-10.6 3.4-10.2 6.2-19.3 8.4-27.3 3.3-12 5.3-21.5 6.4-28.4-3.3 2.6-7.1 5.2-11.3 7.7-29.3 17.5-79.5 33.4-119.9 40.8l79.8-8.8-79.8 8.8-1.8.3c-4 .7-8.1 1.3-12.2 2 .7-.3 1.4-.7 2.1-1l-273 29.9c-.4 1.1-.9 2.1-1.4 3.1z"/><linearGradient id="g" x1="-7554.823" x2="-4642.503" y1="-2132.098" y2="-2132.098" gradientTransform="rotate(-65.001 314.438 -5446.674)" gradientUnits="userSpaceOnUse"><stop offset=".323" stop-color="#9e2064"/><stop offset=".63" stop-color="#c92037"/><stop offset=".751" stop-color="#cd2335"/><stop offset="1" stop-color="#e97826"/></linearGradient><path fill="url(#g)" d="M1112.9 385.1c-24.3 37.3-50.8 79.6-79.4 127.5-1.5 2.5-3 5.1-4.5 7.6-24.6 41.5-50.8 87.1-78.3 137-23.8 43.1-48.5 89.3-74.3 139C854 839.5 830.8 885.4 807 934l273-29.9c79.5-36.6 115.1-69.7 149.6-117.6 9.2-13.2 18.4-27 27.5-41.3 28-43.8 55.6-92 80.1-139.9 23.7-46.3 44.7-92.2 60.7-133.5 10.2-26.3 18.4-50.8 24.1-72.3 5-19 8.9-36.9 11.9-54.1-106 18.1-236.3 35.5-321 39.7z"/><path fill="#BE202E" d="M936.5 1326.1c-5.5 1-11 1.8-16.6 2.6 5.6-.7 11.1-1.6 16.6-2.6z"/><path fill="#BE202E" d="M936.5 1326.1c-5.5 1-11 1.8-16.6 2.6 5.6-.7 11.1-1.6 16.6-2.6z" opacity=".35"/><linearGradient id="h" x1="-7374.163" x2="-4461.843" y1="-2027.484" y2="-2027.484" gradientTransform="rotate(-65.001 314.438 -5446.674)" gradientUnits="userSpaceOnUse"><stop offset=".323" stop-color="#9e2064"/><stop offset=".63" stop-color="#c92037"/><stop offset=".751" stop-color="#cd2335"/><stop offset="1" stop-color="#e97826"/></linearGradient><path fill="url(#h)" d="M936.5 1326.1c-5.5 1-11 1.8-16.6 2.6 5.6-.7 11.1-1.6 16.6-2.6z"/><path fill="#BE202E" d="M980 1186.8c1.8-.2 3.5-.5 5.2-.8-1.7.3-3.4.6-5.2.8z"/><path fill="#BE202E" d="M980 1186.8c1.8-.2 3.5-.5 5.2-.8-1.7.3-3.4.6-5.2.8z" opacity=".35"/><linearGradient id="i" x1="-7374.163" x2="-4461.843" y1="-2037.742" y2="-2037.742" gradientTransform="rotate(-65.001 314.438 -5446.674)" gradientUnits="userSpaceOnUse"><stop offset=".323" stop-color="#9e2064"/><stop offset=".63" stop-color="#c92037"/><stop offset=".751" stop-color="#cd2335"/><stop offset="1" stop-color="#e97826"/></linearGradient><path fill="url(#i)" d="M980 1186.8c1.8-.2 3.5-.5 5.2-.8-1.7.3-3.4.6-5.2.8z"/><path fill="#BE202E" d="M980.2 1186.7z"/><path fill="#BE202E" d="M980.2 1186.7z" opacity=".35"/><linearGradient id="j" x1="-5738.064" x2="-5094.346" y1="-2039.799" y2="-2039.799" gradientTransform="rotate(-65.001 314.438 -5446.674)" gradientUnits="userSpaceOnUse"><stop offset=".323" stop-color="#9e2064"/><stop offset=".63" stop-color="#c92037"/><stop offset=".751" stop-color="#cd2335"/><stop offset="1" stop-color="#e97826"/></linearGradient><path fill="url(#j)" d="M980.2 1186.7z"/></svg>