<?xml version="1.0" standalone="no"?><!DOCTYPE svg PUBLIC "-//W3C//DTD SVG 1.1//EN"
  "http://www.w3.org/Graphics/SVG/1.1/DTD/svg11.dtd">
<svg class="icon" width="64px" height="64.00px" viewBox="0 0 1024 1024" version="1.1"
     xmlns="http://www.w3.org/2000/svg">
  <path fill="#1990FF"
        d="M825.015 483.288c6.872-56.727 8.164-121.009 1.427-194.499l-0.906-9.738-314.255-89.566-306.102 89.491-1.34 9.059c-0.203 1.38-5.725 42.195-4.621 102.217-82.02 11.198-128.666 36.024-134.559 72.159-6.341 38.914 35.668 80.092 121.497 119.157 14.321 6.513 29.872 12.76 45.951 18.867 37.418 116.626 114.873 233.358 271.701 285.424l3.34 1.095 3.454-0.566c2.413-0.399 160.142-28.817 253.351-200.639 14.777-0.717 29.013-1.786 42.617-3.215 93.756-9.776 146.672-35.555 152.995-74.469 8.33-51.077-65.464-95.099-134.55-124.777z m-627.177 72.577c-82.244-37.404-108.344-70.468-105.324-88.924 2.715-16.624 32.908-37.654 107.716-48.293 2.276 43.889 8.358 95.02 21.922 147.593-8.313-3.415-16.558-6.847-24.314-10.376z m311.519 301.686c-134.111-45.771-205.343-143.358-242.702-244.75 66.033 22.274 142.747 41.058 224 54.294 3.439 0.559 6.799 0.937 10.229 1.472v11.852c0 7.888 6.398 14.305 14.305 14.305s14.305-6.416 14.305-14.305v-7.733c66.342 9.172 130.473 14.149 188.228 14.149 5.15 0 9.915-0.274 14.963-0.349-79.199 135.947-200.399 166.425-223.328 171.065z m238.475-199.577c-65.007 2.024-139.89-2.588-218.339-13.623V526.349h94.454c7.888 0 14.305-6.417 14.305-14.305s-6.416-14.305-14.305-14.305h-94.454V427.8c0-7.888-6.398-14.305-14.305-14.305s-14.305 6.416-14.305 14.305v69.939h-94.454c-7.888 0-14.305 6.416-14.305 14.305 0 7.888 6.416 14.305 14.305 14.305h94.454V640.09c-1.908-0.304-3.786-0.538-5.699-0.849-88.141-14.343-170.817-35.222-239.466-60.053-36.611-123.34-28.126-244.556-24.628-278.019l280.305-81.942 287.419 81.942c13.345 160.419-11.238 274.976-50.982 356.805z m55.794-3.485c-8.113 0.842-16.652 1.439-25.213 2.019 18.525-40.622 33.434-88.255 42.566-144.078 85.4 38.015 113.793 72.386 110.731 91.104-3.001 18.458-38.216 41.557-128.084 50.955zM391.707 317.857h-100.08a11.682 11.682 0 0 0-8.398 3.56 11.893 11.893 0 0 0-3.333 8.547l3.109 152.516c0.149 6.466 5.362 11.63 11.729 11.63h0.25c6.468-0.151 11.63-5.565 11.481-12.13l-2.883-140.386h88.125c6.466 0 11.705-5.312 11.705-11.88 0-6.542-5.239-11.857-11.705-11.857z"/>
</svg>
