<svg width="128" height="170" viewBox="0 0 128 170" fill="none" xmlns="http://www.w3.org/2000/svg">
<path d="M73.9973 35.0579C54.1616 69.8286 42.9756 83.2381 35.8964 77.1848C30.9901 72.9896 47.7987 41.7206 58.7276 21.3898C62.1781 14.9707 65.0426 9.64207 66.4524 6.60013C66.7845 5.88338 66.1105 5.51842 65.5618 6.11847C40.0106 34.0615 -21.3347 135.895 7.5775 162.983C8.93141 164.252 11.0512 163.631 11.7989 161.933L33.1473 113.459C34.035 111.443 36.5449 110.432 38.7533 111.201L48.8546 114.714C51.063 115.483 52.1337 117.739 51.246 119.755L31.2362 165.189C30.3407 167.223 31.8971 169.466 34.0878 169.095C74.8305 162.188 98.0507 93.0493 117.5 36.5C124 14.5 124 14.5 128 0C119.318 15.677 82.7367 82.7294 70.4985 81.4891C61.0082 80.5273 63.8387 71.85 70.8524 50.3486C72.2789 45.9755 73.8785 41.072 75.5826 35.595C75.865 34.6874 74.4765 34.218 73.9973 35.0579Z" fill="#FF5C00"/>
</svg>
